<?xml version="1.0" standalone="no"?>
<!DOCTYPE svg PUBLIC "-//W3C//DTD SVG 20010904//EN"
 "http://www.w3.org/TR/2001/REC-SVG-20010904/DTD/svg10.dtd">
<svg version="1.0" xmlns="http://www.w3.org/2000/svg"
 width="800.000000pt" height="800.000000pt" viewBox="0 0 800.000000 800.000000"
 preserveAspectRatio="xMidYMid meet">
<metadata>
Created by potrace 1.11, written by Peter Selinger 2001-2013
</metadata>
<g transform="translate(0.000000,800.000000) scale(0.100000,-0.100000)"
fill="#000000" stroke="none">
<path d="M3485 7149 c-486 -61 -945 -290 -1308 -653 -771 -771 -982 -2007
-520 -3045 44 -98 45 -104 27 -113 -10 -6 -51 -43 -91 -84 -51 -52 -77 -88
-89 -122 -17 -46 -23 -53 -123 -113 -297 -180 -583 -427 -742 -641 -65 -87
-142 -223 -137 -239 2 -6 35 27 73 73 256 305 635 610 853 689 52 18 -197
-212 -313 -290 -162 -108 -179 -124 -242 -219 -31 -48 -94 -133 -140 -189 -45
-56 -96 -128 -112 -160 -16 -32 -52 -84 -80 -116 -46 -52 -51 -63 -51 -105 0
-58 -6 -68 -47 -77 -18 -3 -35 -11 -38 -16 -4 -5 3 -29 14 -55 24 -54 17 -76
-29 -92 -22 -8 -30 -17 -30 -35 0 -36 38 -65 130 -97 46 -16 113 -49 149 -73
102 -68 111 -71 196 -77 70 -6 87 -11 137 -43 31 -20 64 -37 73 -37 18 0 20
32 4 62 -7 13 -7 24 -1 30 16 16 73 -17 132 -77 51 -51 80 -68 80 -46 0 25
-25 70 -58 104 l-36 37 31 0 c40 0 72 -26 143 -120 33 -44 65 -82 70 -85 29
-18 -4 51 -75 159 l-19 28 45 -22 c24 -13 69 -49 100 -81 34 -36 65 -59 78
-59 29 0 26 20 -11 70 -70 91 -78 105 -68 108 16 6 87 -44 155 -108 33 -30 68
-62 78 -69 30 -23 21 11 -19 70 -33 50 -30 48 48 -33 80 -83 87 -88 126 -88
38 0 42 2 42 25 0 14 -7 52 -17 85 -16 61 -13 82 11 65 7 -6 32 -25 56 -42 68
-52 90 -41 90 45 0 46 20 41 90 -23 33 -30 66 -55 74 -55 8 0 18 16 23 37 12
53 45 57 74 9 21 -36 27 -40 94 -51 22 -4 76 -22 120 -42 66 -29 102 -37 210
-49 351 -38 367 -38 579 -21 199 17 1100 42 1117 31 25 -15 159 -4 239 20 108
31 339 127 382 157 31 23 31 21 -15 -43 -58 -82 -60 -103 -4 -51 40 37 119 93
200 142 l38 23 -61 -92 c-33 -51 -58 -95 -56 -97 2 -3 46 25 98 62 84 61 176
115 194 115 4 0 -2 -10 -13 -22 -29 -33 -86 -119 -81 -123 2 -3 51 27 108 66
58 39 123 80 144 91 l39 20 -35 -44 c-39 -48 -62 -87 -55 -94 3 -3 60 32 128
77 120 80 246 146 256 135 3 -3 -26 -38 -66 -79 -39 -40 -71 -77 -71 -80 0 -4
33 19 73 52 72 59 158 111 184 111 11 0 11 -5 -2 -30 -16 -30 -20 -60 -8 -60
3 0 26 11 50 25 50 30 53 24 17 -28 -33 -49 -26 -57 17 -18 18 17 36 31 40 31
3 0 -5 -21 -18 -47 -14 -28 -19 -49 -13 -51 5 -2 34 16 62 41 52 43 131 97
144 97 4 0 -5 -15 -18 -33 -24 -30 -68 -110 -68 -122 0 -13 25 -1 106 55 48
33 90 58 92 56 2 -3 -17 -31 -42 -63 -72 -91 -60 -98 38 -23 37 27 66 47 66
45 0 -2 -5 -16 -12 -30 -6 -14 -8 -28 -5 -31 3 -4 35 10 71 29 63 35 65 36 54
12 -17 -37 -3 -41 36 -12 l34 27 -5 -41 -6 -41 41 21 c72 37 205 81 243 81 55
0 156 34 227 77 102 62 231 202 286 311 17 34 4 46 -14 12 -16 -31 -145 -135
-208 -168 -80 -42 -118 -50 -52 -11 67 39 212 183 262 259 20 30 34 57 32 59
-2 2 -31 -21 -64 -52 -104 -96 -208 -157 -296 -172 -39 -7 -38 -7 26 35 183
119 347 364 409 612 23 91 35 202 21 193 -6 -3 -10 -13 -10 -21 0 -16 -76
-223 -85 -232 -2 -3 -11 1 -19 7 -13 11 -20 2 -50 -56 -53 -106 -203 -238
-299 -264 -22 -6 -41 -8 -44 -5 -3 3 27 38 67 78 76 77 157 192 208 294 70
139 128 354 147 538 l7 68 39 -38 c21 -21 42 -35 45 -31 17 17 -79 125 -333
373 l-278 272 -29 77 c-37 96 -108 216 -184 309 -32 39 -68 87 -80 107 -61
101 -132 327 -132 420 0 31 -9 86 -20 121 -20 64 -81 170 -113 197 -28 23 -47
111 -51 232 -4 142 -25 199 -98 264 -64 58 -130 80 -214 71 l-63 -6 -11 42
c-6 24 -31 102 -55 173 -303 899 -1042 1539 -1908 1650 -128 16 -415 18 -532
4z m430 -79 c912 -84 1670 -744 1960 -1705 27 -91 33 -121 23 -124 -7 -2 -34
-25 -59 -51 -106 -109 -135 -323 -77 -575 36 -160 57 -269 58 -300 l0 -30 -70
3 -70 4 8 41 c14 79 7 565 -12 782 -16 182 -21 215 -40 245 -19 29 -24 55 -29
145 l-6 110 -37 33 c-70 61 -218 156 -354 228 -74 39 -180 98 -234 132 -55 34
-150 82 -210 108 -61 25 -163 70 -226 99 -63 29 -151 66 -195 81 -76 28 -78
29 -43 32 37 3 149 -11 198 -24 36 -10 17 7 -54 50 -33 20 -56 36 -52 36 24 0
227 -64 269 -84 26 -13 47 -19 47 -15 0 11 -89 82 -165 131 l-60 40 40 -7 c89
-14 249 -58 316 -86 40 -16 74 -27 76 -25 7 7 -73 100 -127 149 l-53 48 59
-22 c106 -38 279 -125 318 -160 l39 -34 -7 30 c-4 17 -20 58 -37 93 -51 105
-218 232 -464 352 -209 102 -387 157 -651 201 -449 77 -983 -40 -1364 -297
-150 -101 -152 -102 -138 -147 16 -54 -6 -98 -65 -126 -42 -20 -47 -21 -88 -7
l-43 15 -50 -42 c-135 -114 -321 -367 -427 -583 -104 -213 -185 -494 -219
-754 -39 -298 -14 -765 55 -1037 14 -53 23 -98 21 -100 -2 -3 -16 21 -31 51
-15 31 -29 56 -31 56 -15 0 50 -290 88 -399 37 -106 117 -264 166 -328 36 -47
36 -47 7 -26 -49 34 -62 53 -124 183 -104 219 -186 492 -228 767 -24 157 -24
585 1 743 81 521 267 942 584 1320 456 545 1143 841 1807 780z m265 -956 c451
-55 891 -205 1195 -409 183 -123 165 -96 176 -270 14 -241 29 -933 22 -1022
-12 -157 -23 -82 -23 155 0 230 -13 679 -26 892 l-6 105 -70 55 c-292 231
-717 392 -1196 455 -143 18 -434 35 -524 29 -63 -3 -63 -3 27 15 102 22 214
20 425 -5z m105 -95 c415 -60 764 -184 1035 -370 47 -32 100 -71 119 -87 l34
-29 8 -149 c14 -267 23 -1034 12 -1034 -7 0 -12 167 -17 483 -3 265 -9 530
-12 588 l-7 107 -121 80 c-206 135 -388 223 -611 295 -200 64 -472 115 -625
118 -36 0 -81 7 -100 15 -33 13 -30 14 55 9 50 -3 153 -15 230 -26z m39 -174
c-20 -31 -16 -31 33 -3 l38 23 -18 -29 c-23 -34 -18 -40 18 -26 33 12 43 7 25
-15 -22 -27 -5 -26 43 1 26 14 47 24 47 22 0 -2 -9 -21 -20 -43 -11 -21 -18
-41 -16 -43 3 -2 20 8 39 22 36 27 94 52 103 43 3 -3 -13 -15 -35 -28 -23 -12
-41 -26 -41 -31 0 -4 30 -8 67 -8 70 0 76 -11 13 -27 l-35 -10 54 -7 c30 -4
70 -15 90 -24 l36 -16 -37 -4 c-46 -4 -48 -15 -8 -32 40 -17 52 -35 16 -26
-39 10 -31 -6 19 -36 56 -34 59 -52 6 -33 -22 7 -41 10 -43 5 -2 -5 -33 -12
-70 -16 -79 -8 -95 6 -59 52 12 15 21 35 21 46 0 15 -5 17 -27 12 -21 -6 -25
-4 -21 8 5 12 -3 15 -40 15 -58 0 -85 5 -94 18 -5 6 -11 5 -17 -4 -7 -11 -10
-9 -16 9 -6 18 -9 20 -16 9 -7 -11 -9 -10 -9 4 0 14 -14 23 -22 15 -2 -2 -16
7 -33 18 -36 26 -97 44 -145 44 -33 -1 -34 -2 -16 -15 19 -14 19 -15 -5 -15
-14 0 -47 -11 -74 -25 -27 -13 -52 -22 -57 -19 -14 9 -60 -5 -53 -16 7 -11
-57 -1 -65 11 -3 4 -18 9 -33 11 l-28 3 51 55 c40 43 49 50 44 30 l-6 -25 23
21 c41 36 52 40 44 13 -8 -23 -7 -23 16 -6 44 30 89 56 89 51 0 -3 -5 -14 -10
-25 -15 -27 5 -25 44 4 17 13 38 27 46 32 13 8 13 7 1 -8 -26 -33 0 -31 72 5
87 44 92 45 71 13z m-1049 -199 c11 -2 29 -8 40 -12 18 -7 19 -6 6 9 -13 16
-12 17 13 8 52 -21 86 -42 97 -62 6 -11 13 -18 16 -16 2 3 0 15 -7 26 -17 33
3 25 56 -21 26 -24 45 -35 41 -25 -3 9 -2 17 3 17 5 0 12 -16 16 -36 7 -38 -6
-57 -33 -47 -8 3 -13 -2 -14 -13 0 -16 -2 -16 -11 3 -14 29 -103 63 -163 63
-30 0 -47 5 -53 16 -6 11 -17 15 -30 12 -12 -3 -23 -1 -26 6 -2 6 -5 4 -5 -6
-1 -16 -65 -35 -104 -29 -9 1 -52 -3 -94 -9 -67 -10 -77 -10 -85 4 -12 22 -49
40 -57 28 -3 -5 -25 -6 -51 -2 l-45 6 40 12 c22 7 48 12 57 12 21 0 32 17 16
23 -7 3 7 6 32 7 48 3 112 16 95 20 -5 2 13 7 40 11 49 7 170 4 210 -5z m629
-1 c3 -8 13 -15 23 -15 37 -1 -11 -18 -71 -25 -65 -8 -69 1 -12 36 37 23 52
24 60 4z m-95 -127 c1 -20 -16 -23 -38 -9 -13 8 -12 15 5 46 l19 36 6 -28 c4
-15 7 -36 8 -45z m957 -40 c37 -40 67 -88 61 -95 -3 -2 -15 1 -27 7 -26 14
-43 3 -18 -11 10 -6 22 -18 28 -29 9 -17 7 -18 -22 -9 -41 11 -45 6 -12 -15
22 -15 54 -69 54 -93 0 -4 -12 5 -27 19 -63 58 -107 64 -62 8 18 -22 30 -42
28 -44 -2 -2 -23 5 -46 15 l-42 18 19 43 c24 52 25 86 4 116 -14 20 -14 24 0
44 9 12 16 30 16 40 0 26 12 22 46 -14z m-341 -152 c48 -20 45 -46 -10 -105
-52 -55 -58 -76 -19 -61 35 14 44 13 44 -6 0 -8 4 -13 9 -10 16 10 39 -5 35
-22 -5 -21 12 -49 23 -38 10 10 11 146 1 146 -4 0 -5 7 -2 15 7 17 -7 20 -22
5 -7 -7 -9 -1 -6 19 5 34 8 33 84 -17 29 -19 46 -23 72 -19 29 5 38 1 64 -26
27 -30 52 -68 52 -81 0 -3 -21 10 -46 29 -70 54 -90 44 -29 -15 35 -34 51 -67
17 -37 -21 19 -92 50 -99 43 -2 -2 16 -23 41 -46 25 -24 46 -46 46 -51 0 -5
-23 0 -51 12 -60 23 -74 18 -35 -12 14 -11 31 -29 37 -40 10 -19 9 -20 -18 -6
-15 8 -44 18 -63 21 l-35 7 45 -26 c52 -31 78 -53 92 -78 9 -17 7 -17 -29 1
-21 11 -49 23 -63 27 l-25 7 26 -28 c15 -16 34 -41 44 -56 l17 -28 -44 25
c-24 13 -67 29 -95 35 -37 8 -54 17 -58 31 -4 10 -11 19 -16 19 -6 0 -26 17
-44 38 -19 20 -35 31 -35 24 0 -8 -12 0 -26 17 -15 19 -33 30 -46 28 -43 -4
-26 20 37 51 72 35 82 56 35 76 l-30 12 40 33 c22 17 40 40 40 49 0 14 2 15
10 2 15 -25 20 -6 5 23 -16 31 -15 32 30 13z m1745 -146 c79 -40 110 -109 110
-242 0 -130 22 -217 71 -275 22 -27 56 -80 75 -118 30 -60 36 -85 43 -175 9
-105 50 -260 92 -341 10 -21 28 -72 39 -114 11 -42 46 -132 76 -199 82 -177
94 -211 104 -290 18 -139 -26 -395 -92 -538 -30 -67 -81 -128 -95 -114 -4 4
-10 48 -13 99 -4 51 -10 100 -14 109 -9 20 -36 32 -36 15 0 -7 -5 -30 -11 -52
l-12 -40 -14 60 c-7 33 -18 64 -22 68 -9 9 -31 -50 -31 -81 0 -25 -23 -6 -34
28 -13 39 -33 50 -42 23 -3 -10 -8 -25 -11 -33 -8 -25 -30 27 -49 118 -9 45
-20 82 -24 82 -3 0 -12 -27 -18 -60 -20 -93 -45 -93 -66 1 -11 47 -16 54 -43
61 -23 6 -33 15 -37 36 -3 15 -4 169 -4 342 1 282 -8 464 -28 533 -3 10 0 17
8 17 22 0 179 -83 273 -144 88 -58 103 -59 58 -6 -24 29 -26 39 -27 128 -1 84
-5 104 -28 153 -40 81 -84 124 -168 167 -51 26 -80 47 -93 69 -44 77 -74 360
-46 441 10 30 33 47 50 36 12 -7 11 13 -1 37 -8 13 -21 19 -47 19 -29 0 -33 2
-24 14 22 26 62 29 93 6 27 -20 28 -20 28 -2 0 29 -36 69 -75 82 -78 26 -201
-55 -229 -151 -17 -56 -9 -204 19 -344 8 -44 21 -107 27 -140 6 -33 19 -77 30
-97 10 -21 18 -56 18 -78 0 -34 -3 -41 -17 -38 -14 3 -21 25 -34 118 -9 63
-29 162 -43 220 -49 186 -47 379 4 480 56 110 206 163 310 110z m-2933 -87 c2
-6 -22 -13 -58 -17 -74 -9 -68 -24 14 -33 41 -4 54 -9 50 -19 -3 -9 2 -14 17
-14 20 0 18 -3 -15 -30 -42 -34 -55 -37 -55 -15 0 18 -1 18 -34 5 -20 -7 -26
-6 -26 5 0 16 -37 17 -60 1 -8 -6 -4 2 9 17 32 36 5 38 -29 2 -13 -14 -28 -25
-33 -25 -5 0 -2 11 7 25 9 14 12 25 7 25 -5 0 -23 -11 -39 -25 -17 -14 -33
-25 -37 -25 -4 0 -4 19 0 42 7 40 6 42 -10 28 -17 -14 -17 -13 -6 8 14 25 71
32 71 8 0 -15 2 -14 160 38 49 16 62 15 67 -1z m742 -28 c46 -23 99 -93 121
-159 26 -77 40 -101 40 -68 0 20 3 21 21 12 11 -7 26 -9 34 -7 7 3 18 0 25 -6
10 -9 14 -9 17 1 4 10 10 9 25 -4 14 -14 21 -15 27 -6 5 8 17 3 42 -18 39 -34
49 -36 49 -14 0 14 3 14 29 -3 40 -25 113 -94 107 -100 -3 -3 -21 5 -40 17
-44 26 -46 19 -6 -26 16 -19 39 -52 50 -73 l19 -39 -29 -5 c-30 -7 -70 -42
-70 -64 0 -9 12 -11 43 -7 61 9 100 -14 145 -84 35 -55 36 -60 36 -152 0 -103
-19 -189 -53 -232 -39 -49 -152 -98 -289 -124 -70 -13 -156 -31 -192 -40 -201
-48 -781 -11 -912 58 -31 15 -20 -9 22 -54 l41 -42 -23 -17 c-27 -21 -19 -35
11 -19 23 12 28 1 9 -18 -9 -9 -9 -12 3 -12 8 0 21 6 28 13 10 10 11 7 6 -15
-7 -27 7 -39 20 -18 10 17 25 11 18 -7 -5 -13 0 -12 27 7 l33 23 -5 -28 c-6
-30 15 -64 27 -45 3 5 16 15 28 22 20 10 21 10 9 -5 -24 -29 -8 -40 23 -15 26
21 28 21 21 3 -23 -55 -20 -61 14 -30 l32 30 -16 -32 c-22 -43 -20 -48 9 -29
14 9 37 24 51 33 l26 17 -21 -42 c-24 -48 -21 -51 21 -20 l30 21 -12 -22 c-6
-13 -9 -25 -7 -28 3 -3 36 13 74 35 37 22 69 39 71 37 2 -2 -10 -30 -27 -64
-17 -33 -31 -66 -31 -73 0 -7 30 17 66 52 53 52 65 60 60 40 -3 -14 -9 -43
-12 -65 l-6 -40 36 50 c43 62 75 102 76 95 0 -3 -9 -29 -20 -57 -11 -29 -17
-53 -13 -53 4 0 31 26 60 58 l53 57 -15 -44 c-24 -71 -17 -79 18 -20 49 81 70
108 85 109 8 0 68 18 133 40 163 55 216 53 237 -9 8 -21 7 -40 -3 -67 l-13
-39 -18 38 c-21 44 -34 33 -34 -32 l0 -44 -21 27 c-11 14 -24 26 -29 26 -4 0
-12 -33 -16 -72 -5 -46 -10 -62 -12 -43 -6 51 -18 48 -32 -10 -7 -30 -16 -55
-20 -55 -4 0 -11 14 -16 31 -5 17 -13 31 -19 32 -5 1 -19 -29 -30 -66 -19 -65
-35 -79 -35 -32 0 12 -6 30 -14 41 -16 21 -14 24 -51 -71 -7 -17 -9 -15 -17
18 -6 20 -14 37 -18 37 -5 0 -14 -25 -21 -55 -13 -59 -29 -82 -29 -43 0 32
-11 68 -20 68 -4 0 -13 -20 -20 -45 -14 -49 -24 -51 -33 -5 -10 46 -25 36 -44
-27 l-17 -58 -6 40 c-5 32 -8 36 -15 22 -5 -13 -10 -15 -15 -7 -5 7 -15 0 -28
-22 l-22 -33 0 44 0 45 -30 -29 c-20 -19 -30 -24 -30 -14 0 8 -13 -2 -29 -21
l-29 -35 -7 38 c-7 37 -8 37 -31 22 -23 -15 -24 -15 -24 10 0 29 -15 33 -25 8
-6 -17 -7 -17 -20 0 -12 17 -14 17 -41 -8 -26 -24 -28 -24 -46 -9 -10 10 -18
27 -18 40 0 12 -3 30 -7 39 -5 15 -8 15 -24 -6 -16 -20 -20 -22 -29 -9 -5 8
-10 27 -10 42 0 35 -18 45 -29 16 -9 -23 -9 -22 -16 7 -11 50 -14 57 -25 50
-5 -3 -12 6 -16 20 -3 13 -10 22 -15 19 -8 -5 -12 2 -25 45 -3 10 -8 11 -18 2
-11 -9 -15 -6 -20 15 -5 17 -12 24 -21 20 -8 -3 -19 3 -25 12 -8 15 -11 15
-19 2 -9 -13 -12 -12 -25 5 -9 11 -16 24 -16 29 0 5 -6 3 -14 -3 -11 -9 -15
-8 -20 6 -6 15 -8 15 -16 3 -8 -13 -10 -12 -10 3 0 32 -16 17 -39 -37 -27 -66
-51 -91 -51 -55 -1 23 -1 23 -14 6 -13 -16 -14 -14 -9 25 6 39 5 42 -10 29
-15 -12 -17 -10 -17 23 0 20 -4 36 -9 36 -5 0 -5 16 0 38 14 59 12 69 -7 50
-13 -12 -20 -14 -29 -5 -10 9 -10 20 1 51 21 59 19 73 -7 50 l-22 -19 15 30
c20 41 30 85 19 85 -5 0 -12 -7 -15 -16 -4 -9 -9 -14 -12 -11 -3 3 2 20 11 38
13 24 14 31 3 27 -10 -4 -13 6 -12 46 1 28 5 62 9 75 6 20 4 23 -9 18 -15 -6
-15 -4 0 25 11 22 13 33 6 36 -7 2 10 36 39 78 60 89 69 110 46 101 -13 -5
-17 -1 -17 15 0 17 -3 19 -12 10 -17 -17 -33 -15 -18 3 17 21 5 31 -17 14 -9
-8 16 27 55 78 40 50 72 94 72 97 0 4 -9 2 -20 -4 -26 -14 -25 -11 5 30 29 39
32 52 10 44 -30 -12 -14 14 41 66 44 41 60 51 80 47 18 -3 33 3 51 21 19 19
27 22 33 12 6 -10 11 -8 19 7 6 12 18 23 26 27 13 5 15 1 10 -15 -4 -13 -3
-19 3 -15 5 3 12 19 15 34 8 39 51 89 98 112 68 35 195 21 225 -25 25 -39 73
-34 121 12 81 78 158 101 222 68z m527 -206 c3 -6 -7 -4 -24 5 -16 8 -32 22
-36 31 -5 13 1 12 24 -5 16 -11 32 -26 36 -31z m629 -609 c73 -15 136 -20 200
-18 62 2 98 -1 106 -9 9 -9 3 -14 -26 -22 -42 -11 -85 -46 -85 -69 0 -11 13
-13 69 -7 95 9 159 -10 236 -72 55 -45 88 -94 73 -109 -4 -3 -37 13 -74 35
-79 48 -110 55 -213 49 -58 -3 -87 -10 -115 -27 -20 -12 -36 -27 -36 -31 0 -5
21 -9 46 -8 47 1 71 -12 60 -31 -16 -25 -156 -2 -236 39 -22 11 -55 34 -75 51
-32 29 -35 30 -35 10 0 -28 -14 -27 -39 4 l-20 26 -3 -23 c-4 -21 -6 -20 -20
12 l-15 35 -14 -28 c-12 -26 -14 -27 -20 -10 -4 10 -8 39 -8 66 -1 26 -5 47
-9 47 -15 0 -49 -44 -59 -75 l-10 -30 -13 45 c-16 59 -5 89 45 117 48 28 120
51 157 52 15 1 75 -8 133 -19z m792 -85 c28 -8 54 -22 57 -31 21 -56 38 -225
43 -434 l5 -235 -51 -248 c-59 -288 -91 -417 -127 -519 -43 -122 -99 -194
-134 -173 -13 8 12 56 55 110 81 100 111 202 125 420 5 83 14 195 19 250 18
183 11 519 -15 758 -5 41 -14 68 -31 88 -29 34 -20 36 54 14z m-744 -361 c237
-4 351 -10 380 -19 35 -11 38 -13 15 -14 -41 -2 -43 -19 -3 -25 19 -4 52 -9
72 -12 49 -7 110 -39 123 -63 14 -27 13 -64 -4 -86 -13 -18 -15 -18 -37 -2
-13 9 -35 25 -49 35 -38 27 -136 21 -253 -17 -53 -17 -109 -31 -124 -31 -31 0
-24 -10 18 -25 66 -22 17 -47 -63 -33 -26 5 -96 32 -155 60 -60 29 -112 52
-118 52 -5 1 -12 -9 -15 -22 -5 -23 -5 -23 -29 9 l-24 32 -13 -24 c-13 -23
-13 -23 -14 14 0 44 -11 47 -39 11 l-21 -27 0 31 c0 17 5 43 10 58 6 15 8 29
6 32 -9 9 -67 -20 -81 -42 -14 -19 -15 -19 -15 16 0 46 -18 43 -48 -10 -21
-36 -22 -36 -22 -10 0 36 39 116 59 121 9 3 36 3 61 1 25 -2 197 -6 383 -10z
m382 -469 c94 -46 136 -116 105 -176 -15 -26 -31 -24 -75 11 -28 22 -48 30
-79 30 -53 0 -92 -10 -76 -20 7 -4 -59 -11 -147 -15 -180 -8 -263 2 -333 41
-25 14 -46 21 -48 15 -2 -6 -13 -4 -29 6 -19 13 -26 14 -33 4 -6 -10 -9 -10
-15 -1 -4 6 -13 9 -20 6 -9 -3 -15 7 -19 30 -7 34 -7 34 -31 17 -14 -10 -27
-26 -30 -36 -9 -25 -25 -11 -25 23 0 42 21 57 105 75 61 14 113 16 278 13 183
-4 210 -7 291 -32 49 -15 91 -25 93 -22 3 3 -17 19 -43 37 l-49 31 63 -5 c39
-3 84 -15 117 -32z m1553 -85 l62 -54 0 -67 c0 -83 -9 -129 -25 -129 -8 0 -15
-21 -20 -55 -3 -30 -18 -76 -31 -102 -14 -25 -41 -84 -59 -131 -55 -136 -103
-182 -138 -132 -12 18 -10 31 20 118 83 234 95 293 97 457 0 72 -3 143 -7 159
l-8 28 24 -18 c12 -11 51 -44 85 -74z m311 -315 c1 -55 -25 -228 -45 -308 -14
-55 -20 -66 -36 -64 -16 2 -24 -12 -47 -78 -33 -95 -80 -190 -115 -232 -33
-39 -114 -91 -161 -104 -43 -12 -93 1 -121 32 -17 19 -17 21 18 57 45 46 138
191 188 291 68 136 113 318 126 508 l7 102 93 -82 c88 -78 93 -84 93 -122z
m-1914 52 c51 -29 95 -109 95 -176 0 -83 -60 -161 -113 -147 -48 12 -86 54
-103 114 -21 73 -28 80 -55 56 -29 -26 -40 -49 -48 -102 l-6 -46 -19 30 c-11
16 -19 37 -18 47 0 12 -4 17 -13 13 -8 -3 -17 -1 -20 4 -3 5 -32 29 -65 54
-46 35 -60 42 -60 29 0 -14 -3 -13 -16 5 -18 26 -34 29 -34 5 0 -14 -3 -13
-23 5 -26 25 -43 28 -50 10 -2 -8 -10 -1 -17 15 -10 19 -16 24 -21 15 -10 -16
-14 -11 -23 26 l-7 29 68 -6 c47 -4 113 2 218 18 244 39 261 39 330 2z m-828
-31 c-8 -24 -398 -114 -567 -131 l-65 -6 25 20 c17 14 53 23 125 31 170 21
374 67 414 93 28 19 40 22 54 13 9 -6 16 -15 14 -20z m1 -71 c-2 -3 -20 -7
-39 -10 l-34 -5 35 14 c32 12 50 13 38 1z"/>
<path d="M3039 5605 c-3 -2 -16 -6 -30 -9 -13 -2 -23 -8 -22 -14 1 -5 -7 -8
-17 -5 -11 3 -20 0 -20 -6 0 -11 14 -14 70 -14 59 0 63 2 51 17 -10 12 -8 13
8 9 12 -3 21 -1 21 5 0 16 -49 30 -61 17z"/>
<path d="M6140 3776 c0 -8 7 -49 16 -92 11 -51 15 -104 11 -154 -6 -83 11
-240 25 -240 5 0 16 17 25 38 l16 37 12 -39 c16 -56 38 -67 65 -33 28 36 50
35 50 -2 0 -16 9 -39 20 -52 l20 -24 19 25 c22 28 22 29 50 -27 26 -52 37 -59
60 -39 23 21 28 20 63 -9 16 -14 34 -25 39 -25 14 0 11 56 -5 94 -13 30 -19
35 -66 41 -54 7 -61 15 -75 78 -7 32 -30 45 -55 29 -25 -15 -38 -2 -55 56 -18
59 -55 93 -79 73 -11 -9 -15 -4 -21 26 -4 20 -13 46 -20 56 -13 18 -14 18 -29
-9 -15 -29 -15 -29 -16 30 0 41 -8 76 -26 117 -25 56 -44 75 -44 45z"/>
<path d="M3935 4968 c-16 -6 -41 -19 -55 -28 -48 -33 -105 -57 -153 -64 -38
-6 -57 -3 -97 15 -28 12 -50 25 -50 29 0 3 -31 7 -70 8 -53 2 -79 -2 -108 -17
-67 -34 -93 -99 -54 -135 37 -33 191 -104 241 -111 67 -9 75 -21 67 -97 -3
-35 -9 -93 -12 -130 -7 -74 3 -169 16 -148 6 9 10 7 15 -9 7 -23 52 -51 83
-51 46 0 50 31 27 186 -21 137 -20 196 4 226 11 13 57 44 103 69 45 24 104 65
130 90 40 38 48 51 48 81 0 50 -8 66 -41 83 -32 17 -52 18 -94 3z"/>
<path d="M4360 4438 c-25 -16 -117 -65 -205 -109 -163 -80 -177 -100 -37 -53
98 32 186 82 248 138 59 53 55 66 -6 24z"/>
<path d="M4426 4414 c-22 -8 -62 -32 -90 -53 -83 -63 -145 -99 -227 -131 -162
-62 -334 -101 -526 -119 -88 -8 -334 7 -489 29 -112 17 -147 -7 -110 -78 29
-56 59 -73 145 -83 44 -5 125 -20 181 -34 169 -40 248 -48 439 -42 198 6 518
46 626 78 60 18 112 41 175 78 8 5 27 14 41 21 40 18 59 60 59 128 0 94 -16
164 -44 188 -14 12 -22 25 -19 28 13 12 -123 4 -161 -10z"/>
<path d="M3040 4243 c0 -27 48 -52 120 -62 144 -20 334 -30 405 -22 67 9 168
39 133 40 -9 1 -18 6 -20 13 -3 9 -23 8 -81 -2 -90 -15 -234 -9 -345 15 -99
20 -212 30 -212 18z"/>
</g>
</svg>
